<svg width="105" height="24" viewBox="0 0 105 24" fill="none" xmlns="http://www.w3.org/2000/svg">
<g clip-path="url(#clip0_193_3171)">
<path d="M4.38565 10H2.73793L5.24858 2.72727H7.23011L9.73722 10H8.08949L6.26776 4.3892H6.21094L4.38565 10ZM4.28267 7.14134H8.17472V8.34162H4.28267V7.14134ZM12.1502 2.72727V10H10.6126V2.72727H12.1502ZM15.7298 10V2.72727H20.6303V3.99503H17.2674V5.72798H20.3782V6.99574H17.2674V8.73224H20.6445V10H15.7298ZM23.0886 4.54545L24.09 6.45241L25.1163 4.54545H26.6681L25.0879 7.27273L26.7108 10H25.166L24.09 8.11435L23.0318 10H21.4693L23.0886 7.27273L21.5261 4.54545H23.0886ZM27.5666 12.0455V4.54545H29.0581V5.46165H29.1255C29.1918 5.31487 29.2877 5.16572 29.4132 5.0142C29.541 4.86032 29.7067 4.73248 29.9103 4.63068C30.1163 4.52652 30.372 4.47443 30.6774 4.47443C31.0751 4.47443 31.4421 4.5786 31.7782 4.78693C32.1144 4.9929 32.3831 5.30421 32.5843 5.72088C32.7856 6.13518 32.8862 6.65483 32.8862 7.27983C32.8862 7.88826 32.7879 8.40199 32.5914 8.82102C32.3973 9.23769 32.1322 9.55374 31.796 9.76918C31.4622 9.98224 31.0881 10.0888 30.6738 10.0888C30.3803 10.0888 30.1305 10.0402 29.9245 9.94318C29.7209 9.84612 29.554 9.7242 29.4238 9.57741C29.2936 9.42827 29.1942 9.27794 29.1255 9.12642H29.0794V12.0455H27.5666ZM29.0474 7.27273C29.0474 7.59706 29.0924 7.87997 29.1824 8.12145C29.2723 8.36293 29.4025 8.55114 29.573 8.68608C29.7434 8.81866 29.9506 8.88494 30.1944 8.88494C30.4406 8.88494 30.649 8.81747 30.8194 8.68253C30.9899 8.54522 31.1189 8.35582 31.2065 8.11435C31.2965 7.8705 31.3414 7.58996 31.3414 7.27273C31.3414 6.95786 31.2976 6.68087 31.21 6.44176C31.1225 6.20265 30.9934 6.01562 30.823 5.88068C30.6525 5.74574 30.443 5.67827 30.1944 5.67827C29.9482 5.67827 29.7399 5.74337 29.5694 5.87358C29.4013 6.00379 29.2723 6.18845 29.1824 6.42756C29.0924 6.66667 29.0474 6.94839 29.0474 7.27273ZM36.3805 10.1065C35.8194 10.1065 35.3365 9.9929 34.9316 9.76562C34.5292 9.53598 34.219 9.21165 34.0012 8.79261C33.7834 8.37121 33.6745 7.87287 33.6745 7.29759C33.6745 6.73651 33.7834 6.24408 34.0012 5.82031C34.219 5.39654 34.5256 5.06629 34.921 4.82955C35.3187 4.5928 35.7851 4.47443 36.3201 4.47443C36.68 4.47443 37.015 4.53243 37.3251 4.64844C37.6376 4.76207 37.9099 4.93371 38.1419 5.16335C38.3762 5.39299 38.5585 5.68182 38.6887 6.02983C38.819 6.37547 38.8841 6.7803 38.8841 7.24432V7.6598H34.2782V6.7223H37.46C37.46 6.5045 37.4127 6.31155 37.318 6.14347C37.2233 5.97538 37.0919 5.84399 36.9238 5.74929C36.7581 5.65223 36.5652 5.60369 36.345 5.60369C36.1154 5.60369 35.9118 5.65696 35.7342 5.76349C35.559 5.86766 35.4217 6.00852 35.3223 6.18608C35.2228 6.36127 35.1719 6.55658 35.1696 6.77202V7.66335C35.1696 7.93324 35.2193 8.16643 35.3187 8.36293C35.4205 8.55942 35.5637 8.71094 35.7484 8.81747C35.9331 8.92401 36.152 8.97727 36.4054 8.97727C36.5734 8.97727 36.7273 8.9536 36.867 8.90625C37.0067 8.8589 37.1262 8.78788 37.2257 8.69318C37.3251 8.59848 37.4009 8.48248 37.4529 8.34517L38.8521 8.4375C38.7811 8.77367 38.6355 9.06723 38.4153 9.31818C38.1975 9.56676 37.9158 9.76089 37.5701 9.90057C37.2269 10.0379 36.8303 10.1065 36.3805 10.1065ZM39.8713 10V4.54545H41.3379V5.49716H41.3947C41.4941 5.15862 41.661 4.90294 41.8954 4.73011C42.1298 4.55492 42.3997 4.46733 42.7051 4.46733C42.7808 4.46733 42.8625 4.47206 42.9501 4.48153C43.0377 4.491 43.1146 4.50402 43.1809 4.5206V5.86293C43.1099 5.84162 43.0117 5.82268 42.8862 5.80611C42.7607 5.78954 42.6459 5.78125 42.5417 5.78125C42.3192 5.78125 42.1203 5.82978 41.9451 5.92685C41.7723 6.02154 41.635 6.15412 41.5332 6.32457C41.4338 6.49503 41.3841 6.69152 41.3841 6.91406V10H39.8713ZM47.1378 4.54545V5.68182H43.853V4.54545H47.1378ZM44.5987 3.23864H46.1115V8.32386C46.1115 8.46354 46.1328 8.57244 46.1754 8.65057C46.218 8.72633 46.2772 8.77959 46.353 8.81037C46.4311 8.84115 46.5211 8.85653 46.6229 8.85653C46.6939 8.85653 46.7649 8.85062 46.8359 8.83878C46.907 8.82457 46.9614 8.81392 46.9993 8.80682L47.2372 9.93253C47.1615 9.9562 47.0549 9.98343 46.9176 10.0142C46.7803 10.0473 46.6134 10.0675 46.4169 10.0746C46.0523 10.0888 45.7327 10.0402 45.4581 9.92898C45.1858 9.81771 44.974 9.64489 44.8224 9.41051C44.6709 9.17614 44.5964 8.88021 44.5987 8.52273V3.23864ZM52.5932 6.10085L51.2083 6.18608C51.1846 6.06771 51.1337 5.96117 51.0556 5.86648C50.9775 5.76941 50.8745 5.69247 50.7466 5.63565C50.6212 5.57647 50.4708 5.54688 50.2956 5.54688C50.0613 5.54688 49.8636 5.59659 49.7026 5.69602C49.5416 5.79309 49.4611 5.9233 49.4611 6.08665C49.4611 6.21686 49.5132 6.32694 49.6174 6.4169C49.7215 6.50687 49.9003 6.57907 50.1536 6.63352L51.1408 6.83239C51.6711 6.94129 52.0665 7.11648 52.3269 7.35795C52.5873 7.59943 52.7175 7.91667 52.7175 8.30966C52.7175 8.66714 52.6122 8.98082 52.4015 9.25071C52.1931 9.5206 51.9067 9.7313 51.5421 9.88281C51.1799 10.032 50.762 10.1065 50.2885 10.1065C49.5665 10.1065 48.9912 9.9562 48.5627 9.65554C48.1365 9.35251 47.8868 8.94058 47.8134 8.41974L49.3013 8.34162C49.3463 8.56179 49.4552 8.72988 49.628 8.84588C49.8008 8.95952 50.0222 9.01634 50.2921 9.01634C50.5572 9.01634 50.7703 8.96544 50.9313 8.86364C51.0946 8.75947 51.1775 8.62571 51.1799 8.46236C51.1775 8.32505 51.1195 8.21259 51.0059 8.125C50.8922 8.03504 50.717 7.96638 50.4803 7.91903L49.5357 7.73082C49.003 7.62429 48.6065 7.43963 48.3461 7.17685C48.088 6.91406 47.959 6.57907 47.959 6.17188C47.959 5.8215 48.0537 5.51965 48.2431 5.26634C48.4348 5.01302 48.7035 4.81771 49.0492 4.6804C49.3972 4.54309 49.8044 4.47443 50.2708 4.47443C50.9597 4.47443 51.5018 4.62003 51.8972 4.91122C52.2949 5.20241 52.5269 5.59896 52.5932 6.10085ZM3.38068 14.7273H4.43182L6.90341 20.7642H6.98864L9.46023 14.7273H10.5114V22H9.6875V16.4744H9.61648L7.34375 22H6.5483L4.27557 16.4744H4.20455V22H3.38068V14.7273ZM13.7686 22.1278C13.423 22.1278 13.1093 22.0627 12.8276 21.9325C12.5459 21.8 12.3221 21.6094 12.1564 21.3608C11.9907 21.1098 11.9078 20.8068 11.9078 20.4517C11.9078 20.1392 11.9694 19.8859 12.0925 19.6918C12.2156 19.4953 12.3801 19.3414 12.5861 19.2301C12.7921 19.1188 13.0194 19.036 13.2679 18.9815C13.5189 18.9247 13.771 18.8797 14.0243 18.8466C14.3558 18.804 14.6245 18.772 14.8304 18.7507C15.0388 18.727 15.1903 18.688 15.285 18.6335C15.382 18.5791 15.4306 18.4844 15.4306 18.3494V18.321C15.4306 17.9706 15.3347 17.6984 15.1429 17.5043C14.9535 17.3101 14.6659 17.2131 14.28 17.2131C13.8799 17.2131 13.5662 17.3007 13.339 17.4759C13.1117 17.651 12.9519 17.8381 12.8596 18.0369L12.0641 17.7528C12.2061 17.4214 12.3955 17.1634 12.6323 16.9787C12.8714 16.7917 13.1318 16.6615 13.4135 16.5881C13.6976 16.5123 13.977 16.4744 14.2516 16.4744C14.4268 16.4744 14.628 16.4957 14.8553 16.5384C15.0849 16.5786 15.3063 16.6626 15.5194 16.7905C15.7348 16.9183 15.9135 17.1113 16.0556 17.3693C16.1976 17.6274 16.2686 17.973 16.2686 18.4062V22H15.4306V21.2614H15.388C15.3311 21.3797 15.2364 21.5064 15.1039 21.6413C14.9713 21.7763 14.7949 21.8911 14.5748 21.9858C14.3546 22.0805 14.0859 22.1278 13.7686 22.1278ZM13.8965 21.375C14.2279 21.375 14.5073 21.3099 14.7346 21.1797C14.9642 21.0495 15.137 20.8814 15.253 20.6754C15.3714 20.4695 15.4306 20.2528 15.4306 20.0256V19.2585C15.3951 19.3011 15.3169 19.3402 15.1962 19.3757C15.0778 19.4089 14.9405 19.4384 14.7843 19.4645C14.6304 19.4882 14.4801 19.5095 14.3333 19.5284C14.1889 19.545 14.0717 19.5592 13.9817 19.571C13.7639 19.5994 13.5603 19.6456 13.3709 19.7095C13.1839 19.7711 13.0324 19.8646 12.9164 19.9901C12.8027 20.1132 12.7459 20.2812 12.7459 20.4943C12.7459 20.7855 12.8536 21.0057 13.0691 21.1548C13.2869 21.3016 13.5627 21.375 13.8965 21.375ZM17.7983 22V16.5455H18.608V17.3693H18.6648C18.7642 17.0994 18.9441 16.8804 19.2045 16.7124C19.465 16.5443 19.7585 16.4602 20.0852 16.4602C20.1468 16.4602 20.2237 16.4614 20.3161 16.4638C20.4084 16.4661 20.4782 16.4697 20.5256 16.4744V17.3267C20.4972 17.3196 20.4321 17.3089 20.3303 17.2947C20.2308 17.2782 20.1255 17.2699 20.0142 17.2699C19.7491 17.2699 19.5123 17.3255 19.304 17.4368C19.098 17.5457 18.9347 17.6972 18.8139 17.8913C18.6955 18.0831 18.6364 18.3021 18.6364 18.5483V22H17.7983ZM22.3002 20.0114L22.286 18.9744H22.4565L24.8429 16.5455H25.8798L23.3372 19.1165H23.2662L22.3002 20.0114ZM21.519 22V14.7273H22.3571V22H21.519ZM24.9849 22L22.8542 19.3011L23.4508 18.7188L26.0502 22H24.9849ZM29.0208 22.1136C28.4952 22.1136 28.0418 21.9976 27.6607 21.7656C27.2819 21.5312 26.9895 21.2045 26.7836 20.7855C26.58 20.3641 26.4782 19.8741 26.4782 19.3153C26.4782 18.7566 26.58 18.2642 26.7836 17.8381C26.9895 17.4096 27.276 17.0758 27.6429 16.8366C28.0123 16.5952 28.4431 16.4744 28.9355 16.4744C29.2196 16.4744 29.5002 16.5218 29.7772 16.6165C30.0542 16.7112 30.3063 16.8651 30.5336 17.0781C30.7608 17.2888 30.9419 17.5682 31.0769 17.9162C31.2118 18.2642 31.2793 18.6927 31.2793 19.2017V19.5568H27.0748V18.8324H30.427C30.427 18.5246 30.3655 18.25 30.2424 18.0085C30.1216 17.767 29.9488 17.5765 29.7239 17.4368C29.5014 17.2971 29.2386 17.2273 28.9355 17.2273C28.6017 17.2273 28.3129 17.3101 28.0691 17.4759C27.8276 17.6392 27.6417 17.8523 27.5115 18.1151C27.3813 18.3778 27.3162 18.6596 27.3162 18.9602V19.4432C27.3162 19.8551 27.3873 20.2043 27.5293 20.4908C27.6737 20.7749 27.8738 20.9915 28.1294 21.1406C28.3851 21.2874 28.6822 21.3608 29.0208 21.3608C29.2409 21.3608 29.4398 21.33 29.6174 21.2685C29.7973 21.2045 29.9524 21.1098 30.0826 20.9844C30.2128 20.8565 30.3134 20.6979 30.3844 20.5085L31.1941 20.7358C31.1088 21.0104 30.9656 21.2519 30.7644 21.4602C30.5632 21.6662 30.3146 21.8272 30.0186 21.9432C29.7227 22.0568 29.3901 22.1136 29.0208 22.1136ZM34.9263 16.5455V17.2557H32.0996V16.5455H34.9263ZM32.9235 15.2386H33.7615V20.4375C33.7615 20.6742 33.7959 20.8518 33.8645 20.9702C33.9355 21.0862 34.0255 21.1643 34.1344 21.2045C34.2457 21.2424 34.3629 21.2614 34.486 21.2614C34.5783 21.2614 34.6541 21.2566 34.7132 21.2472C34.7724 21.2353 34.8198 21.2259 34.8553 21.2188L35.0257 21.9716C34.9689 21.9929 34.8896 22.0142 34.7878 22.0355C34.686 22.0592 34.557 22.071 34.4007 22.071C34.164 22.071 33.932 22.0201 33.7047 21.9183C33.4798 21.8165 33.2928 21.6615 33.1436 21.4531C32.9969 21.2448 32.9235 20.982 32.9235 20.6648V15.2386ZM36.187 24.0455V16.5455H36.9966V17.4119H37.0961C37.1576 17.3172 37.2428 17.1965 37.3517 17.0497C37.463 16.9006 37.6216 16.768 37.8276 16.652C38.0359 16.5336 38.3176 16.4744 38.6728 16.4744C39.132 16.4744 39.5369 16.5893 39.8873 16.8189C40.2376 17.0485 40.5111 17.3741 40.7076 17.7955C40.9041 18.2169 41.0023 18.714 41.0023 19.2869C41.0023 19.8646 40.9041 20.3653 40.7076 20.7891C40.5111 21.2105 40.2388 21.5372 39.8908 21.7692C39.5428 21.9988 39.1415 22.1136 38.687 22.1136C38.3366 22.1136 38.056 22.0556 37.8453 21.9396C37.6346 21.8213 37.4725 21.6875 37.3588 21.5384C37.2452 21.3868 37.1576 21.2614 37.0961 21.1619H37.025V24.0455H36.187ZM37.0108 19.2727C37.0108 19.6847 37.0712 20.0481 37.1919 20.3629C37.3127 20.6754 37.4891 20.9205 37.7211 21.098C37.9531 21.2732 38.2372 21.3608 38.5733 21.3608C38.9237 21.3608 39.2161 21.2685 39.4505 21.0838C39.6872 20.8968 39.8648 20.6458 39.9831 20.331C40.1039 20.0137 40.1642 19.661 40.1642 19.2727C40.1642 18.8892 40.1051 18.5436 39.9867 18.2358C39.8707 17.9257 39.6943 17.6806 39.4576 17.5007C39.2232 17.3184 38.9284 17.2273 38.5733 17.2273C38.2324 17.2273 37.946 17.3137 37.714 17.4865C37.4819 17.657 37.3068 17.8961 37.1884 18.2038C37.07 18.5092 37.0108 18.8655 37.0108 19.2727ZM43.1188 14.7273V22H42.2807V14.7273H43.1188ZM46.2589 22.1278C45.9132 22.1278 45.5996 22.0627 45.3178 21.9325C45.0361 21.8 44.8124 21.6094 44.6467 21.3608C44.4809 21.1098 44.3981 20.8068 44.3981 20.4517C44.3981 20.1392 44.4596 19.8859 44.5827 19.6918C44.7058 19.4953 44.8704 19.3414 45.0763 19.2301C45.2823 19.1188 45.5096 19.036 45.7582 18.9815C46.0091 18.9247 46.2612 18.8797 46.5146 18.8466C46.846 18.804 47.1147 18.772 47.3207 18.7507C47.529 18.727 47.6805 18.688 47.7752 18.6335C47.8723 18.5791 47.9208 18.4844 47.9208 18.3494V18.321C47.9208 17.9706 47.8249 17.6984 47.6332 17.5043C47.4438 17.3101 47.1561 17.2131 46.7702 17.2131C46.3701 17.2131 46.0565 17.3007 45.8292 17.4759C45.6019 17.651 45.4421 17.8381 45.3498 18.0369L44.5543 17.7528C44.6964 17.4214 44.8858 17.1634 45.1225 16.9787C45.3616 16.7917 45.622 16.6615 45.9038 16.5881C46.1879 16.5123 46.4672 16.4744 46.7418 16.4744C46.917 16.4744 47.1183 16.4957 47.3455 16.5384C47.5752 16.5786 47.7965 16.6626 48.0096 16.7905C48.225 16.9183 48.4038 17.1113 48.5458 17.3693C48.6879 17.6274 48.7589 17.973 48.7589 18.4062V22H47.9208V21.2614H47.8782C47.8214 21.3797 47.7267 21.5064 47.5941 21.6413C47.4615 21.7763 47.2852 21.8911 47.065 21.9858C46.8448 22.0805 46.5761 22.1278 46.2589 22.1278ZM46.3867 21.375C46.7182 21.375 46.9975 21.3099 47.2248 21.1797C47.4544 21.0495 47.6272 20.8814 47.7433 20.6754C47.8616 20.4695 47.9208 20.2528 47.9208 20.0256V19.2585C47.8853 19.3011 47.8072 19.3402 47.6864 19.3757C47.5681 19.4089 47.4308 19.4384 47.2745 19.4645C47.1206 19.4882 46.9703 19.5095 46.8235 19.5284C46.6791 19.545 46.5619 19.5592 46.4719 19.571C46.2541 19.5994 46.0505 19.6456 45.8612 19.7095C45.6741 19.7711 45.5226 19.8646 45.4066 19.9901C45.293 20.1132 45.2362 20.2812 45.2362 20.4943C45.2362 20.7855 45.3439 21.0057 45.5593 21.1548C45.7771 21.3016 46.0529 21.375 46.3867 21.375ZM52.5044 22.1136C51.9931 22.1136 51.5527 21.9929 51.1834 21.7514C50.8141 21.5099 50.53 21.1773 50.3311 20.7536C50.1323 20.3298 50.0328 19.8456 50.0328 19.3011C50.0328 18.7472 50.1346 18.2583 50.3382 17.8345C50.5442 17.4084 50.8307 17.0758 51.1976 16.8366C51.5669 16.5952 51.9978 16.4744 52.4902 16.4744C52.8738 16.4744 53.2194 16.5455 53.5272 16.6875C53.8349 16.8295 54.0871 17.0284 54.2836 17.2841C54.4801 17.5398 54.602 17.8381 54.6493 18.179H53.8113C53.7473 17.9304 53.6053 17.7102 53.3851 17.5185C53.1673 17.3243 52.8738 17.2273 52.5044 17.2273C52.1777 17.2273 51.8913 17.3125 51.6451 17.483C51.4012 17.651 51.2106 17.889 51.0733 18.1967C50.9384 18.5021 50.8709 18.8608 50.8709 19.2727C50.8709 19.6941 50.9372 20.0611 51.0698 20.3736C51.2047 20.6861 51.3941 20.9287 51.638 21.1016C51.8842 21.2744 52.173 21.3608 52.5044 21.3608C52.7222 21.3608 52.9199 21.3229 53.0975 21.2472C53.275 21.1714 53.4254 21.0625 53.5485 20.9205C53.6716 20.7784 53.7592 20.608 53.8113 20.4091H54.6493C54.602 20.7311 54.4848 21.0211 54.2978 21.2791C54.1131 21.5348 53.8681 21.7384 53.5627 21.8899C53.2596 22.0391 52.9069 22.1136 52.5044 22.1136ZM58.1614 22.1136C57.6358 22.1136 57.1825 21.9976 56.8013 21.7656C56.4225 21.5312 56.1301 21.2045 55.9242 20.7855C55.7206 20.3641 55.6188 19.8741 55.6188 19.3153C55.6188 18.7566 55.7206 18.2642 55.9242 17.8381C56.1301 17.4096 56.4166 17.0758 56.7836 16.8366C57.1529 16.5952 57.5837 16.4744 58.0762 16.4744C58.3603 16.4744 58.6408 16.5218 58.9178 16.6165C59.1948 16.7112 59.4469 16.8651 59.6742 17.0781C59.9015 17.2888 60.0826 17.5682 60.2175 17.9162C60.3525 18.2642 60.4199 18.6927 60.4199 19.2017V19.5568H56.2154V18.8324H59.5676C59.5676 18.5246 59.5061 18.25 59.383 18.0085C59.2623 17.767 59.0894 17.5765 58.8645 17.4368C58.642 17.2971 58.3792 17.2273 58.0762 17.2273C57.7424 17.2273 57.4535 17.3101 57.2097 17.4759C56.9682 17.6392 56.7824 17.8523 56.6522 18.1151C56.522 18.3778 56.4569 18.6596 56.4569 18.9602V19.4432C56.4569 19.8551 56.5279 20.2043 56.6699 20.4908C56.8143 20.7749 57.0144 20.9915 57.2701 21.1406C57.5257 21.2874 57.8229 21.3608 58.1614 21.3608C58.3816 21.3608 58.5804 21.33 58.758 21.2685C58.9379 21.2045 59.093 21.1098 59.2232 20.9844C59.3534 20.8565 59.454 20.6979 59.525 20.5085L60.3347 20.7358C60.2495 21.0104 60.1062 21.2519 59.905 21.4602C59.7038 21.6662 59.4552 21.8272 59.1593 21.9432C58.8633 22.0568 58.5307 22.1136 58.1614 22.1136Z" fill="#FFB38D"/>
<path d="M71.2152 8.72727V16H69.8871L66.723 11.4226H66.6697V16H65.1321V8.72727H66.4815L69.6207 13.3011H69.6847V8.72727H71.2152ZM79.1689 12.3636C79.1689 13.1567 79.0185 13.8314 78.7179 14.3878C78.4196 14.9441 78.0124 15.3691 77.4963 15.6626C76.9825 15.9538 76.4049 16.0994 75.7633 16.0994C75.117 16.0994 74.537 15.9527 74.0233 15.6591C73.5095 15.3655 73.1035 14.9406 72.8052 14.3842C72.5069 13.8279 72.3578 13.1544 72.3578 12.3636C72.3578 11.5705 72.5069 10.8958 72.8052 10.3395C73.1035 9.78314 73.5095 9.35937 74.0233 9.06818C74.537 8.77462 75.117 8.62784 75.7633 8.62784C76.4049 8.62784 76.9825 8.77462 77.4963 9.06818C78.0124 9.35937 78.4196 9.78314 78.7179 10.3395C79.0185 10.8958 79.1689 11.5705 79.1689 12.3636ZM77.6099 12.3636C77.6099 11.8499 77.533 11.4167 77.3791 11.0639C77.2276 10.7112 77.0133 10.4437 76.7363 10.2614C76.4593 10.0791 76.135 9.98793 75.7633 9.98793C75.3916 9.98793 75.0673 10.0791 74.7903 10.2614C74.5133 10.4437 74.2979 10.7112 74.144 11.0639C73.9925 11.4167 73.9167 11.8499 73.9167 12.3636C73.9167 12.8774 73.9925 13.3106 74.144 13.6634C74.2979 14.0161 74.5133 14.2836 74.7903 14.4659C75.0673 14.6482 75.3916 14.7393 75.7633 14.7393C76.135 14.7393 76.4593 14.6482 76.7363 14.4659C77.0133 14.2836 77.2276 14.0161 77.3791 13.6634C77.533 13.3106 77.6099 12.8774 77.6099 12.3636ZM79.6989 9.99503V8.72727H85.6719V9.99503H83.4453V16H81.9254V9.99503H79.6989ZM86.6555 16V8.72727H91.5561V9.99503H88.1932V11.728H91.304V12.9957H88.1932V14.7322H91.5703V16H86.6555ZM96.7239 10.8189C96.6955 10.5324 96.5736 10.3099 96.3581 10.1513C96.1427 9.99266 95.8503 9.91335 95.481 9.91335C95.2301 9.91335 95.0182 9.94886 94.8453 10.0199C94.6725 10.0885 94.54 10.1844 94.4476 10.3075C94.3577 10.4306 94.3127 10.5703 94.3127 10.7266C94.3079 10.8568 94.3352 10.9704 94.3944 11.0675C94.4559 11.1645 94.54 11.2486 94.6465 11.3196C94.753 11.3883 94.8761 11.4486 95.0158 11.5007C95.1555 11.5504 95.3046 11.593 95.4632 11.6286L96.1167 11.7848C96.4339 11.8558 96.7251 11.9505 96.9902 12.0689C97.2554 12.1873 97.485 12.3329 97.6792 12.5057C97.8733 12.6785 98.0236 12.8821 98.1301 13.1165C98.2391 13.3509 98.2947 13.6196 98.2971 13.9226C98.2947 14.3677 98.181 14.7536 97.9561 15.0803C97.7336 15.4046 97.4116 15.6567 96.9902 15.8366C96.5712 16.0142 96.0658 16.103 95.4739 16.103C94.8868 16.103 94.3754 16.013 93.9398 15.8331C93.5066 15.6532 93.168 15.3868 92.9242 15.0341C92.6827 14.679 92.556 14.2398 92.5442 13.7166H94.0321C94.0487 13.9605 94.1185 14.1641 94.2417 14.3274C94.3671 14.4884 94.534 14.6103 94.7424 14.6932C94.9531 14.7737 95.191 14.8139 95.4561 14.8139C95.7166 14.8139 95.9426 14.776 96.1344 14.7003C96.3285 14.6245 96.4789 14.5192 96.5854 14.3842C96.6919 14.2493 96.7452 14.0942 96.7452 13.919C96.7452 13.7557 96.6967 13.6184 96.5996 13.5071C96.5049 13.3958 96.3652 13.3011 96.1806 13.223C95.9983 13.1449 95.7746 13.0739 95.5094 13.0099L94.7175 12.8111C94.1043 12.6619 93.6202 12.4287 93.2651 12.1115C92.91 11.7943 92.7336 11.367 92.736 10.8295C92.7336 10.3892 92.8508 10.0045 93.0875 9.67543C93.3266 9.34635 93.6545 9.08949 94.0712 8.90483C94.4879 8.72017 94.9614 8.62784 95.4917 8.62784C96.0314 8.62784 96.5025 8.72017 96.905 8.90483C97.3098 9.08949 97.6247 9.34635 97.8496 9.67543C98.0745 10.0045 98.1905 10.3857 98.1976 10.8189H96.7239Z" fill="white"/>
</g>
<defs>
<clipPath id="clip0_193_3171">
<rect width="105" height="24" fill="white"/>
</clipPath>
</defs>
</svg>
