<svg width="68" height="24" viewBox="0 0 68 24" fill="none" xmlns="http://www.w3.org/2000/svg">
<g clip-path="url(#clip0_190_3156)">
<path d="M4.88565 10H3.23793L5.74858 2.72727H7.73011L10.2372 10H8.58949L6.76776 4.3892H6.71094L4.88565 10ZM4.78267 7.14134H8.67472V8.34162H4.78267V7.14134ZM12.6502 2.72727V10H11.1126V2.72727H12.6502ZM16.2298 10V2.72727H21.1303V3.99503H17.7674V5.72798H20.8782V6.99574H17.7674V8.73224H21.1445V10H16.2298ZM23.5886 4.54545L24.59 6.45241L25.6163 4.54545H27.1681L25.5879 7.27273L27.2108 10H25.666L24.59 8.11435L23.5318 10H21.9693L23.5886 7.27273L22.0261 4.54545H23.5886ZM28.0666 12.0455V4.54545H29.5581V5.46165H29.6255C29.6918 5.31487 29.7877 5.16572 29.9132 5.0142C30.041 4.86032 30.2067 4.73248 30.4103 4.63068C30.6163 4.52652 30.872 4.47443 31.1774 4.47443C31.5751 4.47443 31.9421 4.5786 32.2782 4.78693C32.6144 4.9929 32.8831 5.30421 33.0843 5.72088C33.2856 6.13518 33.3862 6.65483 33.3862 7.27983C33.3862 7.88826 33.2879 8.40199 33.0914 8.82102C32.8973 9.23769 32.6322 9.55374 32.296 9.76918C31.9622 9.98224 31.5881 10.0888 31.1738 10.0888C30.8803 10.0888 30.6305 10.0402 30.4245 9.94318C30.2209 9.84612 30.054 9.7242 29.9238 9.57741C29.7936 9.42827 29.6942 9.27794 29.6255 9.12642H29.5794V12.0455H28.0666ZM29.5474 7.27273C29.5474 7.59706 29.5924 7.87997 29.6824 8.12145C29.7723 8.36293 29.9025 8.55114 30.073 8.68608C30.2434 8.81866 30.4506 8.88494 30.6944 8.88494C30.9406 8.88494 31.149 8.81747 31.3194 8.68253C31.4899 8.54522 31.6189 8.35582 31.7065 8.11435C31.7965 7.8705 31.8414 7.58996 31.8414 7.27273C31.8414 6.95786 31.7976 6.68087 31.71 6.44176C31.6225 6.20265 31.4934 6.01562 31.323 5.88068C31.1525 5.74574 30.943 5.67827 30.6944 5.67827C30.4482 5.67827 30.2399 5.74337 30.0694 5.87358C29.9013 6.00379 29.7723 6.18845 29.6824 6.42756C29.5924 6.66667 29.5474 6.94839 29.5474 7.27273ZM36.8805 10.1065C36.3194 10.1065 35.8365 9.9929 35.4316 9.76562C35.0292 9.53598 34.719 9.21165 34.5012 8.79261C34.2834 8.37121 34.1745 7.87287 34.1745 7.29759C34.1745 6.73651 34.2834 6.24408 34.5012 5.82031C34.719 5.39654 35.0256 5.06629 35.421 4.82955C35.8187 4.5928 36.2851 4.47443 36.8201 4.47443C37.18 4.47443 37.515 4.53243 37.8251 4.64844C38.1376 4.76207 38.4099 4.93371 38.6419 5.16335C38.8762 5.39299 39.0585 5.68182 39.1887 6.02983C39.319 6.37547 39.3841 6.7803 39.3841 7.24432V7.6598H34.7782V6.7223H37.96C37.96 6.5045 37.9127 6.31155 37.818 6.14347C37.7233 5.97538 37.5919 5.84399 37.4238 5.74929C37.2581 5.65223 37.0652 5.60369 36.845 5.60369C36.6154 5.60369 36.4118 5.65696 36.2342 5.76349C36.059 5.86766 35.9217 6.00852 35.8223 6.18608C35.7228 6.36127 35.6719 6.55658 35.6696 6.77202V7.66335C35.6696 7.93324 35.7193 8.16643 35.8187 8.36293C35.9205 8.55942 36.0637 8.71094 36.2484 8.81747C36.4331 8.92401 36.652 8.97727 36.9054 8.97727C37.0734 8.97727 37.2273 8.9536 37.367 8.90625C37.5067 8.8589 37.6262 8.78788 37.7257 8.69318C37.8251 8.59848 37.9009 8.48248 37.9529 8.34517L39.3521 8.4375C39.2811 8.77367 39.1355 9.06723 38.9153 9.31818C38.6975 9.56676 38.4158 9.76089 38.0701 9.90057C37.7269 10.0379 37.3303 10.1065 36.8805 10.1065ZM40.3713 10V4.54545H41.8379V5.49716H41.8947C41.9941 5.15862 42.161 4.90294 42.3954 4.73011C42.6298 4.55492 42.8997 4.46733 43.2051 4.46733C43.2808 4.46733 43.3625 4.47206 43.4501 4.48153C43.5377 4.491 43.6146 4.50402 43.6809 4.5206V5.86293C43.6099 5.84162 43.5117 5.82268 43.3862 5.80611C43.2607 5.78954 43.1459 5.78125 43.0417 5.78125C42.8192 5.78125 42.6203 5.82978 42.4451 5.92685C42.2723 6.02154 42.135 6.15412 42.0332 6.32457C41.9338 6.49503 41.8841 6.69152 41.8841 6.91406V10H40.3713ZM47.6378 4.54545V5.68182H44.353V4.54545H47.6378ZM45.0987 3.23864H46.6115V8.32386C46.6115 8.46354 46.6328 8.57244 46.6754 8.65057C46.718 8.72633 46.7772 8.77959 46.853 8.81037C46.9311 8.84115 47.0211 8.85653 47.1229 8.85653C47.1939 8.85653 47.2649 8.85062 47.3359 8.83878C47.407 8.82457 47.4614 8.81392 47.4993 8.80682L47.7372 9.93253C47.6615 9.9562 47.5549 9.98343 47.4176 10.0142C47.2803 10.0473 47.1134 10.0675 46.9169 10.0746C46.5523 10.0888 46.2327 10.0402 45.9581 9.92898C45.6858 9.81771 45.474 9.64489 45.3224 9.41051C45.1709 9.17614 45.0964 8.88021 45.0987 8.52273V3.23864ZM53.0932 6.10085L51.7083 6.18608C51.6846 6.06771 51.6337 5.96117 51.5556 5.86648C51.4775 5.76941 51.3745 5.69247 51.2466 5.63565C51.1212 5.57647 50.9708 5.54688 50.7956 5.54688C50.5613 5.54688 50.3636 5.59659 50.2026 5.69602C50.0416 5.79309 49.9611 5.9233 49.9611 6.08665C49.9611 6.21686 50.0132 6.32694 50.1174 6.4169C50.2215 6.50687 50.4003 6.57907 50.6536 6.63352L51.6408 6.83239C52.1711 6.94129 52.5665 7.11648 52.8269 7.35795C53.0873 7.59943 53.2175 7.91667 53.2175 8.30966C53.2175 8.66714 53.1122 8.98082 52.9015 9.25071C52.6931 9.5206 52.4067 9.7313 52.0421 9.88281C51.6799 10.032 51.262 10.1065 50.7885 10.1065C50.0665 10.1065 49.4912 9.9562 49.0627 9.65554C48.6365 9.35251 48.3868 8.94058 48.3134 8.41974L49.8013 8.34162C49.8463 8.56179 49.9552 8.72988 50.128 8.84588C50.3008 8.95952 50.5222 9.01634 50.7921 9.01634C51.0572 9.01634 51.2703 8.96544 51.4313 8.86364C51.5946 8.75947 51.6775 8.62571 51.6799 8.46236C51.6775 8.32505 51.6195 8.21259 51.5059 8.125C51.3922 8.03504 51.217 7.96638 50.9803 7.91903L50.0357 7.73082C49.503 7.62429 49.1065 7.43963 48.8461 7.17685C48.588 6.91406 48.459 6.57907 48.459 6.17188C48.459 5.8215 48.5537 5.51965 48.7431 5.26634C48.9348 5.01302 49.2035 4.81771 49.5492 4.6804C49.8972 4.54309 50.3044 4.47443 50.7708 4.47443C51.4597 4.47443 52.0018 4.62003 52.3972 4.91122C52.7949 5.20241 53.0269 5.59896 53.0932 6.10085ZM3.88068 14.7273H4.93182L7.40341 20.7642H7.48864L9.96023 14.7273H11.0114V22H10.1875V16.4744H10.1165L7.84375 22H7.0483L4.77557 16.4744H4.70455V22H3.88068V14.7273ZM14.2686 22.1278C13.923 22.1278 13.6093 22.0627 13.3276 21.9325C13.0459 21.8 12.8221 21.6094 12.6564 21.3608C12.4907 21.1098 12.4078 20.8068 12.4078 20.4517C12.4078 20.1392 12.4694 19.8859 12.5925 19.6918C12.7156 19.4953 12.8801 19.3414 13.0861 19.2301C13.2921 19.1188 13.5194 19.036 13.7679 18.9815C14.0189 18.9247 14.271 18.8797 14.5243 18.8466C14.8558 18.804 15.1245 18.772 15.3304 18.7507C15.5388 18.727 15.6903 18.688 15.785 18.6335C15.882 18.5791 15.9306 18.4844 15.9306 18.3494V18.321C15.9306 17.9706 15.8347 17.6984 15.6429 17.5043C15.4535 17.3101 15.1659 17.2131 14.78 17.2131C14.3799 17.2131 14.0662 17.3007 13.839 17.4759C13.6117 17.651 13.4519 17.8381 13.3596 18.0369L12.5641 17.7528C12.7061 17.4214 12.8955 17.1634 13.1323 16.9787C13.3714 16.7917 13.6318 16.6615 13.9135 16.5881C14.1976 16.5123 14.477 16.4744 14.7516 16.4744C14.9268 16.4744 15.128 16.4957 15.3553 16.5384C15.5849 16.5786 15.8063 16.6626 16.0194 16.7905C16.2348 16.9183 16.4135 17.1113 16.5556 17.3693C16.6976 17.6274 16.7686 17.973 16.7686 18.4062V22H15.9306V21.2614H15.888C15.8311 21.3797 15.7364 21.5064 15.6039 21.6413C15.4713 21.7763 15.2949 21.8911 15.0748 21.9858C14.8546 22.0805 14.5859 22.1278 14.2686 22.1278ZM14.3965 21.375C14.7279 21.375 15.0073 21.3099 15.2346 21.1797C15.4642 21.0495 15.637 20.8814 15.753 20.6754C15.8714 20.4695 15.9306 20.2528 15.9306 20.0256V19.2585C15.8951 19.3011 15.8169 19.3402 15.6962 19.3757C15.5778 19.4089 15.4405 19.4384 15.2843 19.4645C15.1304 19.4882 14.9801 19.5095 14.8333 19.5284C14.6889 19.545 14.5717 19.5592 14.4817 19.571C14.2639 19.5994 14.0603 19.6456 13.8709 19.7095C13.6839 19.7711 13.5324 19.8646 13.4164 19.9901C13.3027 20.1132 13.2459 20.2812 13.2459 20.4943C13.2459 20.7855 13.3536 21.0057 13.5691 21.1548C13.7869 21.3016 14.0627 21.375 14.3965 21.375ZM18.2983 22V16.5455H19.108V17.3693H19.1648C19.2642 17.0994 19.4441 16.8804 19.7045 16.7124C19.965 16.5443 20.2585 16.4602 20.5852 16.4602C20.6468 16.4602 20.7237 16.4614 20.8161 16.4638C20.9084 16.4661 20.9782 16.4697 21.0256 16.4744V17.3267C20.9972 17.3196 20.9321 17.3089 20.8303 17.2947C20.7308 17.2782 20.6255 17.2699 20.5142 17.2699C20.2491 17.2699 20.0123 17.3255 19.804 17.4368C19.598 17.5457 19.4347 17.6972 19.3139 17.8913C19.1955 18.0831 19.1364 18.3021 19.1364 18.5483V22H18.2983ZM22.8002 20.0114L22.786 18.9744H22.9565L25.3429 16.5455H26.3798L23.8372 19.1165H23.7662L22.8002 20.0114ZM22.019 22V14.7273H22.8571V22H22.019ZM25.4849 22L23.3542 19.3011L23.9508 18.7188L26.5502 22H25.4849ZM29.5208 22.1136C28.9952 22.1136 28.5418 21.9976 28.1607 21.7656C27.7819 21.5312 27.4895 21.2045 27.2836 20.7855C27.08 20.3641 26.9782 19.8741 26.9782 19.3153C26.9782 18.7566 27.08 18.2642 27.2836 17.8381C27.4895 17.4096 27.776 17.0758 28.1429 16.8366C28.5123 16.5952 28.9431 16.4744 29.4355 16.4744C29.7196 16.4744 30.0002 16.5218 30.2772 16.6165C30.5542 16.7112 30.8063 16.8651 31.0336 17.0781C31.2608 17.2888 31.4419 17.5682 31.5769 17.9162C31.7118 18.2642 31.7793 18.6927 31.7793 19.2017V19.5568H27.5748V18.8324H30.927C30.927 18.5246 30.8655 18.25 30.7424 18.0085C30.6216 17.767 30.4488 17.5765 30.2239 17.4368C30.0014 17.2971 29.7386 17.2273 29.4355 17.2273C29.1017 17.2273 28.8129 17.3101 28.5691 17.4759C28.3276 17.6392 28.1417 17.8523 28.0115 18.1151C27.8813 18.3778 27.8162 18.6596 27.8162 18.9602V19.4432C27.8162 19.8551 27.8873 20.2043 28.0293 20.4908C28.1737 20.7749 28.3738 20.9915 28.6294 21.1406C28.8851 21.2874 29.1822 21.3608 29.5208 21.3608C29.7409 21.3608 29.9398 21.33 30.1174 21.2685C30.2973 21.2045 30.4524 21.1098 30.5826 20.9844C30.7128 20.8565 30.8134 20.6979 30.8844 20.5085L31.6941 20.7358C31.6088 21.0104 31.4656 21.2519 31.2644 21.4602C31.0632 21.6662 30.8146 21.8272 30.5186 21.9432C30.2227 22.0568 29.8901 22.1136 29.5208 22.1136ZM35.4263 16.5455V17.2557H32.5996V16.5455H35.4263ZM33.4235 15.2386H34.2615V20.4375C34.2615 20.6742 34.2959 20.8518 34.3645 20.9702C34.4355 21.0862 34.5255 21.1643 34.6344 21.2045C34.7457 21.2424 34.8629 21.2614 34.986 21.2614C35.0783 21.2614 35.1541 21.2566 35.2132 21.2472C35.2724 21.2353 35.3198 21.2259 35.3553 21.2188L35.5257 21.9716C35.4689 21.9929 35.3896 22.0142 35.2878 22.0355C35.186 22.0592 35.057 22.071 34.9007 22.071C34.664 22.071 34.432 22.0201 34.2047 21.9183C33.9798 21.8165 33.7928 21.6615 33.6436 21.4531C33.4969 21.2448 33.4235 20.982 33.4235 20.6648V15.2386ZM36.687 24.0455V16.5455H37.4966V17.4119H37.5961C37.6576 17.3172 37.7428 17.1965 37.8517 17.0497C37.963 16.9006 38.1216 16.768 38.3276 16.652C38.5359 16.5336 38.8176 16.4744 39.1728 16.4744C39.632 16.4744 40.0369 16.5893 40.3873 16.8189C40.7376 17.0485 41.0111 17.3741 41.2076 17.7955C41.4041 18.2169 41.5023 18.714 41.5023 19.2869C41.5023 19.8646 41.4041 20.3653 41.2076 20.7891C41.0111 21.2105 40.7388 21.5372 40.3908 21.7692C40.0428 21.9988 39.6415 22.1136 39.187 22.1136C38.8366 22.1136 38.556 22.0556 38.3453 21.9396C38.1346 21.8213 37.9725 21.6875 37.8588 21.5384C37.7452 21.3868 37.6576 21.2614 37.5961 21.1619H37.525V24.0455H36.687ZM37.5108 19.2727C37.5108 19.6847 37.5712 20.0481 37.6919 20.3629C37.8127 20.6754 37.9891 20.9205 38.2211 21.098C38.4531 21.2732 38.7372 21.3608 39.0733 21.3608C39.4237 21.3608 39.7161 21.2685 39.9505 21.0838C40.1872 20.8968 40.3648 20.6458 40.4831 20.331C40.6039 20.0137 40.6642 19.661 40.6642 19.2727C40.6642 18.8892 40.6051 18.5436 40.4867 18.2358C40.3707 17.9257 40.1943 17.6806 39.9576 17.5007C39.7232 17.3184 39.4284 17.2273 39.0733 17.2273C38.7324 17.2273 38.446 17.3137 38.214 17.4865C37.9819 17.657 37.8068 17.8961 37.6884 18.2038C37.57 18.5092 37.5108 18.8655 37.5108 19.2727ZM43.6188 14.7273V22H42.7807V14.7273H43.6188ZM46.7589 22.1278C46.4132 22.1278 46.0996 22.0627 45.8178 21.9325C45.5361 21.8 45.3124 21.6094 45.1467 21.3608C44.9809 21.1098 44.8981 20.8068 44.8981 20.4517C44.8981 20.1392 44.9596 19.8859 45.0827 19.6918C45.2058 19.4953 45.3704 19.3414 45.5763 19.2301C45.7823 19.1188 46.0096 19.036 46.2582 18.9815C46.5091 18.9247 46.7612 18.8797 47.0146 18.8466C47.346 18.804 47.6147 18.772 47.8207 18.7507C48.029 18.727 48.1805 18.688 48.2752 18.6335C48.3723 18.5791 48.4208 18.4844 48.4208 18.3494V18.321C48.4208 17.9706 48.3249 17.6984 48.1332 17.5043C47.9438 17.3101 47.6561 17.2131 47.2702 17.2131C46.8701 17.2131 46.5565 17.3007 46.3292 17.4759C46.1019 17.651 45.9421 17.8381 45.8498 18.0369L45.0543 17.7528C45.1964 17.4214 45.3858 17.1634 45.6225 16.9787C45.8616 16.7917 46.122 16.6615 46.4038 16.5881C46.6879 16.5123 46.9672 16.4744 47.2418 16.4744C47.417 16.4744 47.6183 16.4957 47.8455 16.5384C48.0752 16.5786 48.2965 16.6626 48.5096 16.7905C48.725 16.9183 48.9038 17.1113 49.0458 17.3693C49.1879 17.6274 49.2589 17.973 49.2589 18.4062V22H48.4208V21.2614H48.3782C48.3214 21.3797 48.2267 21.5064 48.0941 21.6413C47.9615 21.7763 47.7852 21.8911 47.565 21.9858C47.3448 22.0805 47.0761 22.1278 46.7589 22.1278ZM46.8867 21.375C47.2182 21.375 47.4975 21.3099 47.7248 21.1797C47.9544 21.0495 48.1272 20.8814 48.2433 20.6754C48.3616 20.4695 48.4208 20.2528 48.4208 20.0256V19.2585C48.3853 19.3011 48.3072 19.3402 48.1864 19.3757C48.0681 19.4089 47.9308 19.4384 47.7745 19.4645C47.6206 19.4882 47.4703 19.5095 47.3235 19.5284C47.1791 19.545 47.0619 19.5592 46.9719 19.571C46.7541 19.5994 46.5505 19.6456 46.3612 19.7095C46.1741 19.7711 46.0226 19.8646 45.9066 19.9901C45.793 20.1132 45.7362 20.2812 45.7362 20.4943C45.7362 20.7855 45.8439 21.0057 46.0593 21.1548C46.2771 21.3016 46.5529 21.375 46.8867 21.375ZM53.0044 22.1136C52.4931 22.1136 52.0527 21.9929 51.6834 21.7514C51.3141 21.5099 51.03 21.1773 50.8311 20.7536C50.6323 20.3298 50.5328 19.8456 50.5328 19.3011C50.5328 18.7472 50.6346 18.2583 50.8382 17.8345C51.0442 17.4084 51.3307 17.0758 51.6976 16.8366C52.0669 16.5952 52.4978 16.4744 52.9902 16.4744C53.3738 16.4744 53.7194 16.5455 54.0272 16.6875C54.3349 16.8295 54.5871 17.0284 54.7836 17.2841C54.9801 17.5398 55.102 17.8381 55.1493 18.179H54.3113C54.2473 17.9304 54.1053 17.7102 53.8851 17.5185C53.6673 17.3243 53.3738 17.2273 53.0044 17.2273C52.6777 17.2273 52.3913 17.3125 52.1451 17.483C51.9012 17.651 51.7106 17.889 51.5733 18.1967C51.4384 18.5021 51.3709 18.8608 51.3709 19.2727C51.3709 19.6941 51.4372 20.0611 51.5698 20.3736C51.7047 20.6861 51.8941 20.9287 52.138 21.1016C52.3842 21.2744 52.673 21.3608 53.0044 21.3608C53.2222 21.3608 53.4199 21.3229 53.5975 21.2472C53.775 21.1714 53.9254 21.0625 54.0485 20.9205C54.1716 20.7784 54.2592 20.608 54.3113 20.4091H55.1493C55.102 20.7311 54.9848 21.0211 54.7978 21.2791C54.6131 21.5348 54.3681 21.7384 54.0627 21.8899C53.7596 22.0391 53.4069 22.1136 53.0044 22.1136ZM58.6614 22.1136C58.1358 22.1136 57.6825 21.9976 57.3013 21.7656C56.9225 21.5312 56.6301 21.2045 56.4242 20.7855C56.2206 20.3641 56.1188 19.8741 56.1188 19.3153C56.1188 18.7566 56.2206 18.2642 56.4242 17.8381C56.6301 17.4096 56.9166 17.0758 57.2836 16.8366C57.6529 16.5952 58.0837 16.4744 58.5762 16.4744C58.8603 16.4744 59.1408 16.5218 59.4178 16.6165C59.6948 16.7112 59.9469 16.8651 60.1742 17.0781C60.4015 17.2888 60.5826 17.5682 60.7175 17.9162C60.8525 18.2642 60.9199 18.6927 60.9199 19.2017V19.5568H56.7154V18.8324H60.0676C60.0676 18.5246 60.0061 18.25 59.883 18.0085C59.7623 17.767 59.5894 17.5765 59.3645 17.4368C59.142 17.2971 58.8792 17.2273 58.5762 17.2273C58.2424 17.2273 57.9535 17.3101 57.7097 17.4759C57.4682 17.6392 57.2824 17.8523 57.1522 18.1151C57.022 18.3778 56.9569 18.6596 56.9569 18.9602V19.4432C56.9569 19.8551 57.0279 20.2043 57.1699 20.4908C57.3143 20.7749 57.5144 20.9915 57.7701 21.1406C58.0257 21.2874 58.3229 21.3608 58.6614 21.3608C58.8816 21.3608 59.0804 21.33 59.258 21.2685C59.4379 21.2045 59.593 21.1098 59.7232 20.9844C59.8534 20.8565 59.954 20.6979 60.025 20.5085L60.8347 20.7358C60.7495 21.0104 60.6062 21.2519 60.405 21.4602C60.2038 21.6662 59.9552 21.8272 59.6593 21.9432C59.3633 22.0568 59.0307 22.1136 58.6614 22.1136Z" fill="#341607"/>
</g>
<defs>
<clipPath id="clip0_190_3156">
<rect width="68" height="24" fill="white"/>
</clipPath>
</defs>
</svg>
